<mxfile host="app.diagrams.net" modified="2024-01-14T10:46:22.491Z" agent="Mozilla/5.0 (X11; Linux x86_64) AppleWebKit/537.36 (KHTML, like Gecko) Chrome/120.0.0.0 Safari/537.36 Edg/120.0.0.0" version="22.1.18" etag="BFEq3yg5hvPfgWim8yrm" type="github">
  <diagram name="Page-1" id="a-ucHuZgeSw9zQjKeU6U">
    <mxGraphModel>
      <root>
        <mxCell id="0" />
        <mxCell id="1" parent="0" />
      </root>
    </mxGraphModel>
  </diagram>
</mxfile>
